<svg xmlns="http://www.w3.org/2000/svg" fill="none" version="1.1" width="17.49993896484375" height="20" viewBox="0 0 17.49993896484375 20">
    <g>
        <path d="M14.5535,4.40004C14.5535,4.40004,14.5535,3.97719,14.5535,3.97719C14.5535,2.2736,12.9707,0.981458,11.3098,1.41681C10.3086,-0.516781,7.63438,-0.436703,6.7011,1.44599C5.0886,1.03345,3.48216,2.26349,3.48216,3.98438C3.48216,3.98438,3.48216,8.91132,3.48216,8.91132C2.70275,8.6212,1.79045,8.71335,1.05705,9.25784C-0.089624,10.1092,-0.341147,11.7318,0.488695,12.8966C0.488695,12.8966,5.17497,19.4753,5.17497,19.4753C5.29057,19.6376,5.44328,19.7698,5.62037,19.8611C5.79745,19.9524,5.99379,20,6.19302,20C6.19302,20,14.8999,20,14.8999,20C15.4821,20,15.9872,19.5981,16.118,19.0307C16.118,19.0307,17.297,13.9152,17.297,13.9152C17.4318,13.3302,17.4998,12.7317,17.4999,12.1314C17.4999,12.1314,17.4999,6.99218,17.4999,6.99218C17.4999,5.40547,16.1123,4.18,14.5535,4.40004C14.5535,4.40004,14.5535,4.40004,14.5535,4.40004ZM15.6248,12.1313C15.6248,12.5896,15.5727,13.0481,15.4699,13.4941C15.4699,13.4941,14.4026,18.125,14.4026,18.125C14.4026,18.125,6.51509,18.125,6.51509,18.125C6.51509,18.125,2.01525,11.8087,2.01525,11.8087C1.45123,11.0169,2.60209,10.1378,3.16345,10.9257C3.16345,10.9257,4.22314,12.4131,4.22314,12.4131C4.5745,12.9063,5.35716,12.6587,5.35716,12.0505C5.35716,12.0505,5.35716,3.98438,5.35716,3.98438C5.35716,2.98262,6.78571,3.01524,6.78571,4.01137C6.78571,4.01137,6.78571,9.99999,6.78571,9.99999C6.78571,10.3452,7.06551,10.625,7.41071,10.625C7.41071,10.625,7.67852,10.625,7.67852,10.625C8.02371,10.625,8.30352,10.3452,8.30352,9.99999C8.30352,9.99999,8.30352,2.6172,8.30352,2.6172C8.30352,1.61474,9.73207,1.64806,9.73207,2.64419C9.73207,2.64419,9.73207,9.99999,9.73207,9.99999C9.73207,10.3452,10.0119,10.625,10.3571,10.625C10.3571,10.625,10.6249,10.625,10.6249,10.625C10.9701,10.625,11.2499,10.3452,11.2499,9.99999C11.2499,9.99999,11.2499,3.9502,11.2499,3.9502C11.2499,2.94739,12.6784,2.98106,12.6784,3.97719C12.6784,3.97719,12.6784,9.99999,12.6784,9.99999C12.6784,10.3452,12.9582,10.625,13.3034,10.625C13.3034,10.625,13.5712,10.625,13.5712,10.625C13.9164,10.625,14.1962,10.3452,14.1962,9.99999C14.1962,9.99999,14.1962,7.01918,14.1962,7.01918C14.1962,5.9941,15.6247,6.01762,15.6247,6.99218C15.6247,6.99218,15.6247,12.1313,15.6247,12.1313C15.6247,12.1313,15.6248,12.1313,15.6248,12.1313C15.6248,12.1313,15.6248,12.1313,15.6248,12.1313Z"
              fill="#6D8EE8" fill-opacity="1"/>
    </g>
</svg>