<svg xmlns="http://www.w3.org/2000/svg" fill="none" version="1.1" width="24" height="24" viewBox="0 0 24 24">
    <defs>
        <clipPath id="master_svg0_19_169">
            <rect x="0" y="0" width="24" height="24" rx="0"/>
        </clipPath>
    </defs>
    <g clip-path="url(#master_svg0_19_169)">
        <g>
            <path d="M17.803530517578125,6.400040238418579C17.803530517578125,6.400040238418579,17.803530517578125,5.977190238418579,17.803530517578125,5.977190238418579C17.803530517578125,4.273600238418579,16.220730517578126,2.981458238418579,14.559830517578124,3.416810238418579C13.558630517578125,1.4832192384185792,10.884410517578125,1.563297238418579,9.951130517578125,3.445990238418579C8.338630517578125,3.0334502384185793,6.732190517578125,4.263490238418579,6.732190517578125,5.984380238418579C6.732190517578125,5.984380238418579,6.732190517578125,10.911320238418579,6.732190517578125,10.911320238418579C5.952780517578125,10.621200238418579,5.040480517578125,10.71335023841858,4.307080517578125,11.257840238418579C3.160406517578125,12.109200238418579,2.908883517578125,13.731800238418579,3.738725517578125,14.896600238418578C3.738725517578125,14.896600238418578,8.425000517578125,21.47530023841858,8.425000517578125,21.47530023841858C8.540600517578124,21.637600238418578,8.693310517578125,21.76980023841858,8.870400517578126,21.86110023841858C9.047480517578126,21.95240023841858,9.243820517578126,22.00000023841858,9.443050517578126,22.00000023841858C9.443050517578126,22.00000023841858,18.149930517578127,22.00000023841858,18.149930517578127,22.00000023841858C18.732130517578128,22.00000023841858,19.237230517578126,21.598100238418578,19.368030517578124,21.03070023841858C19.368030517578124,21.03070023841858,20.547030517578126,15.91520023841858,20.547030517578126,15.91520023841858C20.681830517578124,15.330200238418579,20.749830517578125,14.73170023841858,20.749930517578125,14.131400238418578C20.749930517578125,14.131400238418578,20.749930517578125,8.99218023841858,20.749930517578125,8.99218023841858C20.749930517578125,7.405470238418579,19.362330517578126,6.180000238418579,17.803530517578125,6.400040238418579C17.803530517578125,6.400040238418579,17.803530517578125,6.400040238418579,17.803530517578125,6.400040238418579ZM18.874830517578125,14.131300238418579C18.874830517578125,14.58960023841858,18.822730517578123,15.048100238418579,18.719930517578128,15.494100238418579C18.719930517578128,15.494100238418579,17.652630517578125,20.12500023841858,17.652630517578125,20.12500023841858C17.652630517578125,20.12500023841858,9.765120517578126,20.12500023841858,9.765120517578126,20.12500023841858C9.765120517578126,20.12500023841858,5.265280517578125,13.808700238418579,5.265280517578125,13.808700238418579C4.701260517578125,13.016900238418579,5.8521205175781255,12.13780023841858,6.413480517578125,12.92570023841858C6.413480517578125,12.92570023841858,7.473170517578125,14.41310023841858,7.473170517578125,14.41310023841858C7.824530517578125,14.906300238418579,8.607190517578125,14.658700238418579,8.607190517578125,14.050500238418579C8.607190517578125,14.050500238418579,8.607190517578125,5.984380238418579,8.607190517578125,5.984380238418579C8.607190517578125,4.982620238418579,10.035740517578125,5.0152402384185795,10.035740517578125,6.011370238418579C10.035740517578125,6.011370238418579,10.035740517578125,11.99999023841858,10.035740517578125,11.99999023841858C10.035740517578125,12.34520023841858,10.315540517578125,12.625000238418579,10.660740517578125,12.625000238418579C10.660740517578125,12.625000238418579,10.928550517578124,12.625000238418579,10.928550517578124,12.625000238418579C11.273740517578124,12.625000238418579,11.553550517578126,12.34520023841858,11.553550517578126,11.99999023841858C11.553550517578126,11.99999023841858,11.553550517578126,4.6172002384185795,11.553550517578126,4.6172002384185795C11.553550517578126,3.6147402384185794,12.982100517578125,3.648060238418579,12.982100517578125,4.644190238418579C12.982100517578125,4.644190238418579,12.982100517578125,11.99999023841858,12.982100517578125,11.99999023841858C12.982100517578125,12.34520023841858,13.261930517578126,12.625000238418579,13.607130517578126,12.625000238418579C13.607130517578126,12.625000238418579,13.874930517578125,12.625000238418579,13.874930517578125,12.625000238418579C14.220130517578125,12.625000238418579,14.499930517578125,12.34520023841858,14.499930517578125,11.99999023841858C14.499930517578125,11.99999023841858,14.499930517578125,5.95020023841858,14.499930517578125,5.95020023841858C14.499930517578125,4.9473902384185795,15.928430517578125,4.9810602384185785,15.928430517578125,5.977190238418579C15.928430517578125,5.977190238418579,15.928430517578125,11.99999023841858,15.928430517578125,11.99999023841858C15.928430517578125,12.34520023841858,16.208230517578123,12.625000238418579,16.553430517578125,12.625000238418579C16.553430517578125,12.625000238418579,16.821230517578122,12.625000238418579,16.821230517578122,12.625000238418579C17.166430517578124,12.625000238418579,17.446230517578122,12.34520023841858,17.446230517578122,11.99999023841858C17.446230517578122,11.99999023841858,17.446230517578122,9.01918023841858,17.446230517578122,9.01918023841858C17.446230517578122,7.9941002384185795,18.874730517578126,8.01762023841858,18.874730517578126,8.99218023841858C18.874730517578126,8.99218023841858,18.874730517578126,14.131300238418579,18.874730517578126,14.131300238418579C18.874730517578126,14.131300238418579,18.874830517578125,14.131300238418579,18.874830517578125,14.131300238418579C18.874830517578125,14.131300238418579,18.874830517578125,14.131300238418579,18.874830517578125,14.131300238418579Z"
                  fill="#CACCD2" fill-opacity="1"/>
        </g>
    </g>
</svg>