<svg xmlns="http://www.w3.org/2000/svg" fill="none" version="1.1" width="21" height="26" viewBox="0 0 21 26">
    <g>
        <path d="M13.7233,14.9832C13.7233,14.9832,17.7966,23.8406,17.7966,23.8406C17.7966,23.8406,10.2981,26,10.2981,26C10.2981,26,6.22323,17.1426,6.22323,17.1426C6.22323,17.1426,0,20.2302,0,20.2302C0,20.2302,2.5857,0,2.5857,0C2.5857,0,21,14.1839,21,14.1839C21,14.1839,13.7249,14.9832,13.7249,14.9832C13.7249,14.9832,13.7233,14.9832,13.7233,14.9832C13.7233,14.9832,13.7233,14.9832,13.7233,14.9832ZM11.375,21.6667C11.375,21.6667,2.625,10.1111,2.625,10.1111C2.625,10.1111,17.5,13,17.5,13C17.5,13,4.375,11.5556,4.375,11.5556C4.375,11.5556,2.625,17.3333,2.625,17.3333C2.625,17.3333,3.51125,8.46179,5.25,9.38889C6.98875,10.316,11.375,16.8015,12.25,18.7778C13.0584,20.6037,12.25,24.5556,12.25,24.5556C12.25,24.5556,11.375,21.6667,11.375,21.6667C11.375,21.6667,11.375,21.6667,11.375,21.6667Z" fill="#99B1F2" fill-opacity="1"/>
    </g>
</svg>