<?xml version="1.0" standalone="no"?><!DOCTYPE svg PUBLIC "-//W3C//DTD SVG 1.1//EN" "http://www.w3.org/Graphics/SVG/1.1/DTD/svg11.dtd">
<svg t="1723680058922" class="icon" viewBox="0 0 1024 1024" version="1.1" xmlns="http://www.w3.org/2000/svg" p-id="3492" width="200" height="200">
    <path d="M512 512m-512 0a512 512 0 1 0 1024 0 512 512 0 1 0-1024 0Z" fill="#6DA8F7" p-id="3493"></path>
    <path d="M512.008982 412.402526m-120.275087 0a120.275088 120.275088 0 1 0 240.550175 0 120.275088 120.275088 0 1 0-240.550175 0Z" fill="#F7F8F8" p-id="3494"></path>
    <path d="M705.688702 643.287579c0 48.936421-86.716632 88.584982-193.688702 88.584982-106.97207 0-193.688702-39.648561-193.688702-88.584982 0-48.954386 86.716632-88.629895 193.688702-88.629895 106.97207 0 193.688702 39.675509 193.688702 88.629895z" fill="#F7F8F8" p-id="3495"></path>
</svg>