<?xml version="1.0" standalone="no"?><!DOCTYPE svg PUBLIC "-//W3C//DTD SVG 1.1//EN" "http://www.w3.org/Graphics/SVG/1.1/DTD/svg11.dtd"><svg t="1736653736084" class="icon" viewBox="0 0 1024 1024" version="1.1" xmlns="http://www.w3.org/2000/svg" p-id="3497" xmlns:xlink="http://www.w3.org/1999/xlink" width="200" height="200"><path d="M328.205128 630.153846v52.512821h52.512821c0-28.882051 23.630769-52.512821 52.51282-52.512821v-52.51282h-52.51282c-28.882051 0-52.512821 23.630769-52.512821 52.51282z" fill="#30A5ED" p-id="3498"></path><path d="M485.74359 577.641026v52.51282h78.769231v-183.794872h78.76923c28.882051 0 52.512821-23.630769 52.512821-52.51282V52.512821c0-28.882051-23.630769-52.512821-52.512821-52.512821H118.153846C89.271795 0 65.641026 23.630769 65.641026 52.512821v341.333333c0 28.882051 23.630769 52.512821 52.51282 52.51282h367.589744v131.282052zM118.153846 341.333333V105.025641c0-28.882051 23.630769-52.512821 52.512821-52.51282h420.102564c28.882051 0 52.512821 23.630769 52.51282 52.51282v236.307692c0 28.882051-23.630769 52.512821-52.51282 52.512821H170.666667c-28.882051 0-52.512821-23.630769-52.512821-52.512821zM669.538462 918.974359v-78.769231h78.76923v-78.769231h-78.76923v-78.76923h-78.769231v78.76923h-78.769231v78.769231h78.769231v78.769231zM905.846154 577.641026h-52.512821v52.51282c28.882051 0 52.512821 23.630769 52.512821 52.512821h52.51282v-52.512821c0-28.882051-23.630769-52.512821-52.51282-52.51282zM380.717949 918.974359h-52.512821v52.51282c0 28.882051 23.630769 52.512821 52.512821 52.512821h52.51282v-52.512821c-28.882051 0-52.512821-23.630769-52.51282-52.51282zM853.333333 971.487179v52.512821h52.512821c28.882051 0 52.512821-23.630769 52.51282-52.512821v-52.51282h-52.51282c0 28.882051-23.630769 52.512821-52.512821 52.51282zM617.025641 577.641026h78.769231v52.51282h-78.769231zM485.74359 971.487179h78.769231v52.512821h-78.769231zM617.025641 971.487179h78.769231v52.512821h-78.769231zM905.846154 708.923077h52.51282v78.769231h-52.51282zM905.846154 840.205128h52.51282v52.512821h-52.51282zM328.205128 708.923077h52.512821v78.769231h-52.512821zM328.205128 840.205128h52.512821v52.512821h-52.512821zM748.307692 577.641026h52.512821v52.51282h-52.512821zM748.307692 971.487179h52.512821v52.512821h-52.512821z" fill="#30A5ED" p-id="3499"></path></svg>