<?xml version="1.0" standalone="no"?><!DOCTYPE svg PUBLIC "-//W3C//DTD SVG 1.1//EN" "http://www.w3.org/Graphics/SVG/1.1/DTD/svg11.dtd">
<svg t="1723680094968" class="icon" viewBox="0 0 1024 1024" version="1.1" xmlns="http://www.w3.org/2000/svg" p-id="4509" width="200" height="200">
    <path d="M452.266667 171.042133a196.130133 196.130133 0 0 0-46.199467-14.455466 165.376 165.376 0 0 0-27.306667-2.986667h-8.3968a165.376 165.376 0 0 0-27.648 2.986667c-19.950933 3.6864-38.929067 10.154667-56.388266 19.524266-55.842133 29.986133-86.357333 84.002133-86.357334 156.398934v8.072533c-0.0512 6.8608 0.290133 15.837867 1.024 25.6 1.348267 18.090667 3.822933 35.2768 7.4752 51.2 7.202133 31.2832 18.500267 55.7056 35.328 73.216 1.8432 1.911467 4.7104 5.5296 7.304534 9.472 3.140267 4.795733 4.898133 8.738133 5.2224 10.461867 0 2.9184 0.187733 2.338133-1.416534 3.822933-5.102933 4.7104-16.6912 11.502933-39.7312 22.8352-119.637333 58.845867-159.709867 92.16-160.1536 149.504l-3.720533 53.213867a41.6768 41.6768 0 0 0 38.570667 44.526933c3.242667 0.221867 49.732267 0.392533 114.961066 0.512-0.2048-19.114667 0.546133-36.096 2.082134-51.2a25724.586667 25724.586667 0 0 1-103.8336-0.273067l3.072-44.049066 0.068266-1.792c0-29.696 29.303467-54.186667 131.549867-104.4992 55.0912-27.101867 69.751467-40.669867 69.751467-73.045334 0-1.962667-0.136533-3.925333-0.392534-5.888-1.348267-10.4448-6.058667-21.2992-13.243733-32.238933a122.487467 122.487467 0 0 0-13.175467-16.8448c-9.506133-9.8816-17.0496-26.197333-22.357333-49.237333a292.386133 292.386133 0 0 1-6.314667-43.52 288.443733 288.443733 0 0 1-0.887466-21.640534v-8.192c0-54.033067 20.599467-90.487467 59.392-111.3088a141.892267 141.892267 0 0 1 41.472-14.2848A116.462933 116.462933 0 0 1 370.568533 204.8h7.953067c3.976533 0.034133 10.632533 0.733867 18.2272 2.133333 6.0928 1.1264 12.032 2.594133 17.800533 4.386134a165.597867 165.597867 0 0 1 37.717334-40.277334zM806.4 599.0912c-43.588267-21.504-47.428267-24.900267-47.496533-32.768 0.341333-2.3552 2.474667-7.253333 6.314666-13.1072 2.986667-4.573867 6.2976-8.772267 8.448-11.008 18.346667-19.131733 30.72-45.943467 38.621867-80.4352a381.44 381.44 0 0 0 8.277333-56.7808c0.802133-10.8032 1.1776-20.753067 1.143467-28.398933v-4.437334-4.027733c0-80.3328-33.4336-139.6736-94.685867-172.6464a211.694933 211.694933 0 0 0-61.969066-21.504A181.009067 181.009067 0 0 0 635.118933 170.666667h-9.335466c-8.3456 0.068267-18.8416 1.1776-30.3104 3.293866a211.677867 211.677867 0 0 0-61.969067 21.504c-61.269333 32.989867-94.685867 92.330667-94.685867 172.151467v9.028267c-0.034133 7.594667 0.341333 17.544533 1.143467 28.3648 1.501867 20.0704 4.232533 39.133867 8.277333 56.746666 7.901867 34.5088 20.2752 61.320533 38.6048 80.4352 2.167467 2.2528 5.461333 6.4512 8.465067 11.025067 3.84 5.853867 5.973333 10.752 6.314667 13.090133-0.068267 7.8848-3.925333 11.264-47.496534 32.785067-132.317867 65.28-176.349867 102.007467-176.7936 164.488533l-4.164266 59.562667a43.537067 43.537067 0 0 0 40.260266 46.557867c12.612267 0.887467 627.1488 1.024 637.781334-0.170667a43.554133 43.554133 0 0 0 38.4-48.042667l-6.4512-59.562666c-1.194667-61.474133-45.602133-98.116267-176.7424-162.833067z m151.1936 165.4272l25.565867-1.3824-0.1024-1.962667-25.565867 1.3824-18.107733 1.962667h18.210133z m-25.565867 0.785067l5.802667 53.486933c-67.157333 0.597333-545.621333 0.512-613.034667-0.0512l3.669334-52.445867c0.068267-36.6592 33.314133-64.546133 148.309333-121.2928 60.416-29.815467 76.049067-44.322133 76.049067-78.933333 0-2.048-0.136533-4.096-0.4096-6.178133-1.416533-11.127467-6.485333-22.869333-14.267734-34.730667a133.888 133.888 0 0 0-14.336-18.397867c-11.025067-11.485867-19.643733-30.208-25.668266-56.439466a330.769067 330.769067 0 0 1-7.1168-49.1008 326.3488 326.3488 0 0 1-1.006934-24.456534v-9.147733c0-61.474133 23.552-103.253333 67.754667-127.061333a160.648533 160.648533 0 0 1 47.035733-16.247467c8.6528-1.604267 16.213333-2.389333 21.1968-2.440533h8.891734c4.608 0.034133 12.202667 0.853333 20.821333 2.440533 16.861867 3.1232 32.699733 8.533333 47.035733 16.247467 44.202667 23.808 67.754667 65.5872 67.754667 127.061333v9.233067c0.034133 6.229333-0.290133 14.848-1.006933 24.354133-1.314133 17.595733-3.669333 34.133333-7.1168 49.117867-6.024533 26.231467-14.6432 44.9536-25.668267 56.439466a133.870933 133.870933 0 0 0-14.336 18.397867c-7.765333 11.861333-12.8512 23.6032-14.267733 34.730667a48.5888 48.5888 0 0 0-0.4096 6.178133c0 34.6112 15.633067 49.117867 76.049066 78.933333 115.012267 56.763733 148.241067 84.650667 148.241067 119.517867h7.389867l-7.338667 0.785067z"
          fill="#108EE9" p-id="4510"></path>
</svg>