<svg xmlns="http://www.w3.org/2000/svg" fill="none" version="1.1" width="21" height="26" viewBox="0 0 21 26">
    <g>
        <path d="M13.7233,14.9832C13.7233,14.9832,17.7966,23.8406,17.7966,23.8406C17.7966,23.8406,10.2981,26,10.2981,26C10.2981,26,6.22323,17.1426,6.22323,17.1426C6.22323,17.1426,0,20.2302,0,20.2302C0,20.2302,2.5857,0,2.5857,0C2.5857,0,21,14.1839,21,14.1839C21,14.1839,13.7249,14.9832,13.7249,14.9832C13.7249,14.9832,13.7233,14.9832,13.7233,14.9832C13.7233,14.9832,13.7233,14.9832,13.7233,14.9832ZM13.7058,22.3303C13.7058,22.3303,9.37235,12.9097,9.37235,12.9097C9.37235,12.9097,14.0968,12.392,14.0968,12.392C14.0968,12.392,5.09478,5.45913,5.09478,5.45913C5.09478,5.45913,3.83385,15.3469,3.83385,15.3469C3.83385,15.3469,7.87201,13.3429,7.87201,13.3429C7.87201,13.3429,12.2054,22.7634,12.2054,22.7634C12.2054,22.7634,13.7058,22.3303,13.7058,22.3303C13.7058,22.3303,13.7058,22.3303,13.7058,22.3303Z" fill="#CACCD2" fill-opacity="1"/>
    </g>
</svg>