<?xml version="1.0" standalone="no"?><!DOCTYPE svg PUBLIC "-//W3C//DTD SVG 1.1//EN" "http://www.w3.org/Graphics/SVG/1.1/DTD/svg11.dtd"><svg t="1733217568340" class="icon" viewBox="0 0 1024 1024" version="1.1" xmlns="http://www.w3.org/2000/svg" p-id="5595" xmlns:xlink="http://www.w3.org/1999/xlink" width="200" height="200"><path d="M512 512m-512 0a512 512 0 1 0 1024 0 512 512 0 1 0-1024 0Z" fill="#4480EE" p-id="5596"></path><path d="M817.152 475.136h-267.776V207.36c-0.512-20.48-16.896-36.864-37.376-36.864s-36.864 16.384-36.864 36.864v267.776H207.36c-20.48 0.512-36.864 16.896-36.864 37.376s16.384 36.864 36.864 36.864h267.776v267.776c0 20.48 16.384 36.864 36.864 36.864s36.864-16.384 36.864-36.864v-267.776h267.776c20.48 0 36.864-16.384 36.864-36.864 0.512-20.992-15.872-37.376-36.352-37.376z" fill="#FFFFFF" p-id="5597"></path></svg>