<?xml version="1.0" standalone="no"?><!DOCTYPE svg PUBLIC "-//W3C//DTD SVG 1.1//EN" "http://www.w3.org/Graphics/SVG/1.1/DTD/svg11.dtd">
<svg t="1723685188764" class="icon" viewBox="0 0 1024 1024" version="1.1" xmlns="http://www.w3.org/2000/svg" p-id="5506" width="200" height="200">
    <path d="M174.5 341.7v340.5c0 15.2 8.1 29.3 21.3 37l294.9 170.3c13.2 7.6 29.5 7.6 42.7 0l294.9-170.3c13.2-7.6 21.3-21.7 21.3-37V341.7c0-15.2-8.1-29.3-21.3-37L533.4 134.5c-13.2-7.6-29.5-7.6-42.7 0L195.8 304.8c-13.2 7.6-21.3 21.7-21.3 36.9z" fill="#CEE8FF" p-id="5507"></path>
    <path d="M512 171.5l294.9 170.3v340.5L512 852.5 217 682.3V341.8l295-170.3c-0.1 0 0 0 0 0m0-42.7c-7.4 0-14.7 1.9-21.3 5.7l-295 170.3c-13.2 7.6-21.3 21.7-21.3 37v340.5c0 15.2 8.1 29.3 21.3 37l294.9 170.3c6.6 3.8 14 5.7 21.3 5.7s14.7-1.9 21.3-5.7l294.9-170.3c13.2-7.6 21.3-21.7 21.3-37V341.7c0-15.2-8.1-29.3-21.3-37L533.3 134.5c-6.6-3.8-14-5.7-21.3-5.7z" fill="#3C99FE" p-id="5508"></path>
    <path d="M669.4 446.2L522.6 531c-10.2 5.9-23.3 2.4-29.1-7.8-5.9-10.2-2.4-23.3 7.8-29.1L648 409.3c10.2-5.9 23.3-2.4 29.1 7.8 5.9 10.1 2.4 23.3-7.7 29.1z" fill="#3C99FE" p-id="5509"></path>
    <path d="M376 409.3L522.6 494c10.2 5.9 13.7 19 7.8 29.1-5.9 10.2-19 13.7-29.1 7.8l-146.6-84.7c-10.2-5.9-13.7-19-7.8-29.1 5.8-10.1 19-13.6 29.1-7.8z" fill="#3C99FE" p-id="5510"></path>
    <path d="M512 682.7c-11.7 0-21.3-9.6-21.3-21.3V517.9c0-11.7 9.6-21.3 21.3-21.3 11.7 0 21.3 9.6 21.3 21.3v143.5c0 11.7-9.6 21.3-21.3 21.3z" fill="#3C99FE" p-id="5511"></path>
    <path d="M320 439.5c-23.5 0-42.7-19.1-42.7-42.7s19.1-42.7 42.7-42.7 42.7 19.1 42.7 42.7-19.1 42.7-42.7 42.7z" fill="#CEE8FF" p-id="5512"></path>
    <path d="M320 375.5c11.8 0 21.3 9.6 21.3 21.3s-9.6 21.3-21.3 21.3-21.3-9.6-21.3-21.3 9.6-21.3 21.3-21.3m0-42.7c-35.3 0-64 28.7-64 64s28.7 64 64 64 64-28.7 64-64-28.6-64-64-64z" fill="#298DF7" p-id="5513"></path>
    <path d="M704 439.5c-23.5 0-42.7-19.1-42.7-42.7s19.1-42.7 42.7-42.7 42.7 19.1 42.7 42.7-19.1 42.7-42.7 42.7z" fill="#CEE8FF" p-id="5514"></path>
    <path d="M704 375.5c11.8 0 21.3 9.6 21.3 21.3s-9.6 21.3-21.3 21.3-21.3-9.6-21.3-21.3 9.6-21.3 21.3-21.3m0-42.7c-35.3 0-64 28.7-64 64s28.7 64 64 64 64-28.7 64-64-28.6-64-64-64z" fill="#298DF7" p-id="5515"></path>
    <path d="M512 746.7c-23.5 0-42.7-19.1-42.7-42.7s19.1-42.7 42.7-42.7c23.5 0 42.7 19.1 42.7 42.7s-19.2 42.7-42.7 42.7z" fill="#CEE8FF" p-id="5516"></path>
    <path d="M512 682.7c11.8 0 21.3 9.6 21.3 21.3s-9.6 21.3-21.3 21.3-21.3-9.6-21.3-21.3 9.5-21.3 21.3-21.3m0-42.7c-35.3 0-64 28.7-64 64s28.7 64 64 64 64-28.7 64-64-28.7-64-64-64z" fill="#298DF7" p-id="5517"></path>
</svg>